<mxfile host="app.diagrams.net" modified="2023-11-29T09:29:16.557Z" agent="Mozilla/5.0 (Windows NT 10.0; Win64; x64) AppleWebKit/537.36 (KHTML, like Gecko) Chrome/119.0.0.0 Safari/537.36" etag="xGXgmUifbStKR9zed93W" version="22.1.4" type="device">
  <diagram name="Page-1" id="urU99BaxohHZrYqh7GUm">
    <mxGraphModel dx="1444" dy="829" grid="1" gridSize="10" guides="1" tooltips="1" connect="1" arrows="1" fold="1" page="1" pageScale="1" pageWidth="827" pageHeight="1169" math="0" shadow="0">
      <root>
        <mxCell id="0" />
        <mxCell id="1" parent="0" />
        <mxCell id="YO2cyMpKr7BF2TFz9Hn_-1" value="Salamandre" style="rounded=1;whiteSpace=wrap;html=1;" vertex="1" parent="1">
          <mxGeometry x="200" y="140" width="120" height="60" as="geometry" />
        </mxCell>
        <mxCell id="YO2cyMpKr7BF2TFz9Hn_-8" value="Pictures" style="rounded=1;whiteSpace=wrap;html=1;" vertex="1" parent="1">
          <mxGeometry x="480" y="360" width="100" height="40" as="geometry" />
        </mxCell>
        <mxCell id="YO2cyMpKr7BF2TFz9Hn_-11" value="Latitude" style="ellipse;whiteSpace=wrap;html=1;" vertex="1" parent="1">
          <mxGeometry x="390" y="480" width="90" height="40" as="geometry" />
        </mxCell>
        <mxCell id="YO2cyMpKr7BF2TFz9Hn_-18" value="Longitude" style="ellipse;whiteSpace=wrap;html=1;" vertex="1" parent="1">
          <mxGeometry x="490" y="480" width="90" height="40" as="geometry" />
        </mxCell>
        <mxCell id="YO2cyMpKr7BF2TFz9Hn_-19" value="Focal" style="ellipse;whiteSpace=wrap;html=1;" vertex="1" parent="1">
          <mxGeometry x="260" y="400" width="90" height="40" as="geometry" />
        </mxCell>
        <mxCell id="YO2cyMpKr7BF2TFz9Hn_-20" value="Filename" style="ellipse;whiteSpace=wrap;html=1;" vertex="1" parent="1">
          <mxGeometry x="290" y="460" width="90" height="40" as="geometry" />
        </mxCell>
        <mxCell id="YO2cyMpKr7BF2TFz9Hn_-21" value="File" style="ellipse;whiteSpace=wrap;html=1;" vertex="1" parent="1">
          <mxGeometry x="660" y="230" width="90" height="40" as="geometry" />
        </mxCell>
        <mxCell id="YO2cyMpKr7BF2TFz9Hn_-22" value="Date" style="ellipse;whiteSpace=wrap;html=1;" vertex="1" parent="1">
          <mxGeometry x="720" y="290" width="90" height="40" as="geometry" />
        </mxCell>
        <mxCell id="YO2cyMpKr7BF2TFz9Hn_-23" value="Taille" style="ellipse;whiteSpace=wrap;html=1;" vertex="1" parent="1">
          <mxGeometry x="720" y="420" width="90" height="40" as="geometry" />
        </mxCell>
        <mxCell id="YO2cyMpKr7BF2TFz9Hn_-24" value="Identification" style="ellipse;whiteSpace=wrap;html=1;" vertex="1" parent="1">
          <mxGeometry x="630" y="480" width="90" height="40" as="geometry" />
        </mxCell>
        <mxCell id="YO2cyMpKr7BF2TFz9Hn_-25" value="Salamandre_ID" style="ellipse;whiteSpace=wrap;html=1;" vertex="1" parent="1">
          <mxGeometry x="720" y="360" width="90" height="40" as="geometry" />
        </mxCell>
        <mxCell id="YO2cyMpKr7BF2TFz9Hn_-26" value="Nrbe_obs" style="ellipse;whiteSpace=wrap;html=1;" vertex="1" parent="1">
          <mxGeometry x="40" y="200" width="90" height="40" as="geometry" />
        </mxCell>
        <mxCell id="YO2cyMpKr7BF2TFz9Hn_-27" value="Last_date" style="ellipse;whiteSpace=wrap;html=1;" vertex="1" parent="1">
          <mxGeometry x="470" y="50" width="90" height="40" as="geometry" />
        </mxCell>
        <mxCell id="YO2cyMpKr7BF2TFz9Hn_-28" value="Salamandre_ID" style="ellipse;whiteSpace=wrap;html=1;" vertex="1" parent="1">
          <mxGeometry x="40" y="120" width="90" height="40" as="geometry" />
        </mxCell>
        <mxCell id="YO2cyMpKr7BF2TFz9Hn_-29" value="Last_obs" style="ellipse;whiteSpace=wrap;html=1;" vertex="1" parent="1">
          <mxGeometry x="70" y="50" width="90" height="40" as="geometry" />
        </mxCell>
        <mxCell id="YO2cyMpKr7BF2TFz9Hn_-30" value="Last_lat" style="ellipse;whiteSpace=wrap;html=1;" vertex="1" parent="1">
          <mxGeometry x="200" y="50" width="90" height="40" as="geometry" />
        </mxCell>
        <mxCell id="YO2cyMpKr7BF2TFz9Hn_-31" value="Last_long" style="ellipse;whiteSpace=wrap;html=1;" vertex="1" parent="1">
          <mxGeometry x="340" y="50" width="90" height="40" as="geometry" />
        </mxCell>
        <mxCell id="YO2cyMpKr7BF2TFz9Hn_-32" value="" style="endArrow=none;html=1;rounded=0;exitX=0;exitY=0.75;exitDx=0;exitDy=0;entryX=1;entryY=0.5;entryDx=0;entryDy=0;" edge="1" parent="1" source="YO2cyMpKr7BF2TFz9Hn_-1" target="YO2cyMpKr7BF2TFz9Hn_-26">
          <mxGeometry width="50" height="50" relative="1" as="geometry">
            <mxPoint x="380" y="230" as="sourcePoint" />
            <mxPoint x="430" y="180" as="targetPoint" />
          </mxGeometry>
        </mxCell>
        <mxCell id="YO2cyMpKr7BF2TFz9Hn_-33" value="" style="endArrow=none;html=1;rounded=0;exitX=0;exitY=0.5;exitDx=0;exitDy=0;entryX=1;entryY=0.5;entryDx=0;entryDy=0;" edge="1" parent="1" source="YO2cyMpKr7BF2TFz9Hn_-1" target="YO2cyMpKr7BF2TFz9Hn_-28">
          <mxGeometry width="50" height="50" relative="1" as="geometry">
            <mxPoint x="210" y="195" as="sourcePoint" />
            <mxPoint x="140" y="230" as="targetPoint" />
          </mxGeometry>
        </mxCell>
        <mxCell id="YO2cyMpKr7BF2TFz9Hn_-34" value="" style="endArrow=none;html=1;rounded=0;exitX=1;exitY=1;exitDx=0;exitDy=0;entryX=0.25;entryY=0;entryDx=0;entryDy=0;" edge="1" parent="1" source="YO2cyMpKr7BF2TFz9Hn_-29" target="YO2cyMpKr7BF2TFz9Hn_-1">
          <mxGeometry width="50" height="50" relative="1" as="geometry">
            <mxPoint x="220" y="205" as="sourcePoint" />
            <mxPoint x="150" y="240" as="targetPoint" />
          </mxGeometry>
        </mxCell>
        <mxCell id="YO2cyMpKr7BF2TFz9Hn_-35" value="" style="endArrow=none;html=1;rounded=0;exitX=0.5;exitY=0;exitDx=0;exitDy=0;entryX=0.5;entryY=1;entryDx=0;entryDy=0;" edge="1" parent="1" source="YO2cyMpKr7BF2TFz9Hn_-1" target="YO2cyMpKr7BF2TFz9Hn_-30">
          <mxGeometry width="50" height="50" relative="1" as="geometry">
            <mxPoint x="230" y="215" as="sourcePoint" />
            <mxPoint x="160" y="250" as="targetPoint" />
          </mxGeometry>
        </mxCell>
        <mxCell id="YO2cyMpKr7BF2TFz9Hn_-36" value="" style="endArrow=none;html=1;rounded=0;exitX=1;exitY=0;exitDx=0;exitDy=0;entryX=0.5;entryY=1;entryDx=0;entryDy=0;" edge="1" parent="1" source="YO2cyMpKr7BF2TFz9Hn_-1" target="YO2cyMpKr7BF2TFz9Hn_-31">
          <mxGeometry width="50" height="50" relative="1" as="geometry">
            <mxPoint x="240" y="225" as="sourcePoint" />
            <mxPoint x="170" y="260" as="targetPoint" />
          </mxGeometry>
        </mxCell>
        <mxCell id="YO2cyMpKr7BF2TFz9Hn_-37" value="" style="endArrow=none;html=1;rounded=0;exitX=0.5;exitY=1;exitDx=0;exitDy=0;entryX=1;entryY=0.5;entryDx=0;entryDy=0;" edge="1" parent="1" source="YO2cyMpKr7BF2TFz9Hn_-27" target="YO2cyMpKr7BF2TFz9Hn_-1">
          <mxGeometry width="50" height="50" relative="1" as="geometry">
            <mxPoint x="250" y="235" as="sourcePoint" />
            <mxPoint x="180" y="270" as="targetPoint" />
          </mxGeometry>
        </mxCell>
        <mxCell id="YO2cyMpKr7BF2TFz9Hn_-38" value="" style="endArrow=none;html=1;rounded=0;exitX=1;exitY=0.5;exitDx=0;exitDy=0;entryX=0;entryY=0.25;entryDx=0;entryDy=0;" edge="1" parent="1" source="YO2cyMpKr7BF2TFz9Hn_-20" target="YO2cyMpKr7BF2TFz9Hn_-8">
          <mxGeometry width="50" height="50" relative="1" as="geometry">
            <mxPoint x="260" y="245" as="sourcePoint" />
            <mxPoint x="190" y="280" as="targetPoint" />
          </mxGeometry>
        </mxCell>
        <mxCell id="YO2cyMpKr7BF2TFz9Hn_-39" value="" style="endArrow=none;html=1;rounded=0;exitX=0.25;exitY=1;exitDx=0;exitDy=0;entryX=1;entryY=0;entryDx=0;entryDy=0;" edge="1" parent="1" source="YO2cyMpKr7BF2TFz9Hn_-8" target="YO2cyMpKr7BF2TFz9Hn_-11">
          <mxGeometry width="50" height="50" relative="1" as="geometry">
            <mxPoint x="270" y="255" as="sourcePoint" />
            <mxPoint x="200" y="290" as="targetPoint" />
          </mxGeometry>
        </mxCell>
        <mxCell id="YO2cyMpKr7BF2TFz9Hn_-40" value="" style="endArrow=none;html=1;rounded=0;exitX=1;exitY=0;exitDx=0;exitDy=0;entryX=0;entryY=0.25;entryDx=0;entryDy=0;" edge="1" parent="1" source="YO2cyMpKr7BF2TFz9Hn_-19" target="YO2cyMpKr7BF2TFz9Hn_-8">
          <mxGeometry width="50" height="50" relative="1" as="geometry">
            <mxPoint x="380" y="410" as="sourcePoint" />
            <mxPoint x="430" y="360" as="targetPoint" />
          </mxGeometry>
        </mxCell>
        <mxCell id="YO2cyMpKr7BF2TFz9Hn_-41" value="" style="endArrow=none;html=1;rounded=0;exitX=0.5;exitY=1;exitDx=0;exitDy=0;entryX=0.5;entryY=0;entryDx=0;entryDy=0;" edge="1" parent="1" source="YO2cyMpKr7BF2TFz9Hn_-8" target="YO2cyMpKr7BF2TFz9Hn_-18">
          <mxGeometry width="50" height="50" relative="1" as="geometry">
            <mxPoint x="280" y="265" as="sourcePoint" />
            <mxPoint x="210" y="300" as="targetPoint" />
          </mxGeometry>
        </mxCell>
        <mxCell id="YO2cyMpKr7BF2TFz9Hn_-42" value="" style="endArrow=none;html=1;rounded=0;exitX=0.5;exitY=0;exitDx=0;exitDy=0;entryX=0.75;entryY=1;entryDx=0;entryDy=0;" edge="1" parent="1" source="YO2cyMpKr7BF2TFz9Hn_-24" target="YO2cyMpKr7BF2TFz9Hn_-8">
          <mxGeometry width="50" height="50" relative="1" as="geometry">
            <mxPoint x="290" y="275" as="sourcePoint" />
            <mxPoint x="220" y="310" as="targetPoint" />
          </mxGeometry>
        </mxCell>
        <mxCell id="YO2cyMpKr7BF2TFz9Hn_-43" value="" style="endArrow=none;html=1;rounded=0;exitX=0;exitY=0.5;exitDx=0;exitDy=0;entryX=1;entryY=1;entryDx=0;entryDy=0;" edge="1" parent="1" source="YO2cyMpKr7BF2TFz9Hn_-23" target="YO2cyMpKr7BF2TFz9Hn_-8">
          <mxGeometry width="50" height="50" relative="1" as="geometry">
            <mxPoint x="300" y="285" as="sourcePoint" />
            <mxPoint x="230" y="320" as="targetPoint" />
          </mxGeometry>
        </mxCell>
        <mxCell id="YO2cyMpKr7BF2TFz9Hn_-44" value="" style="endArrow=none;html=1;rounded=0;exitX=0;exitY=0.5;exitDx=0;exitDy=0;entryX=1;entryY=0.5;entryDx=0;entryDy=0;" edge="1" parent="1" source="YO2cyMpKr7BF2TFz9Hn_-25" target="YO2cyMpKr7BF2TFz9Hn_-8">
          <mxGeometry width="50" height="50" relative="1" as="geometry">
            <mxPoint x="310" y="295" as="sourcePoint" />
            <mxPoint x="240" y="330" as="targetPoint" />
          </mxGeometry>
        </mxCell>
        <mxCell id="YO2cyMpKr7BF2TFz9Hn_-45" value="" style="endArrow=none;html=1;rounded=0;exitX=0;exitY=0.5;exitDx=0;exitDy=0;entryX=1;entryY=0.25;entryDx=0;entryDy=0;" edge="1" parent="1" source="YO2cyMpKr7BF2TFz9Hn_-22" target="YO2cyMpKr7BF2TFz9Hn_-8">
          <mxGeometry width="50" height="50" relative="1" as="geometry">
            <mxPoint x="320" y="305" as="sourcePoint" />
            <mxPoint x="250" y="340" as="targetPoint" />
          </mxGeometry>
        </mxCell>
        <mxCell id="YO2cyMpKr7BF2TFz9Hn_-46" value="" style="endArrow=none;html=1;rounded=0;exitX=0;exitY=1;exitDx=0;exitDy=0;entryX=0.75;entryY=0;entryDx=0;entryDy=0;" edge="1" parent="1" source="YO2cyMpKr7BF2TFz9Hn_-21" target="YO2cyMpKr7BF2TFz9Hn_-8">
          <mxGeometry width="50" height="50" relative="1" as="geometry">
            <mxPoint x="330" y="315" as="sourcePoint" />
            <mxPoint x="260" y="350" as="targetPoint" />
          </mxGeometry>
        </mxCell>
        <mxCell id="YO2cyMpKr7BF2TFz9Hn_-47" value="Is on" style="rhombus;whiteSpace=wrap;html=1;" vertex="1" parent="1">
          <mxGeometry x="390" y="230" width="80" height="80" as="geometry" />
        </mxCell>
        <mxCell id="YO2cyMpKr7BF2TFz9Hn_-51" value="" style="shape=link;endArrow=none;html=1;rounded=0;exitX=0.25;exitY=0;exitDx=0;exitDy=0;entryX=1;entryY=1;entryDx=0;entryDy=0;endFill=0;" edge="1" parent="1" source="YO2cyMpKr7BF2TFz9Hn_-8" target="YO2cyMpKr7BF2TFz9Hn_-47">
          <mxGeometry width="50" height="50" relative="1" as="geometry">
            <mxPoint x="440" y="320" as="sourcePoint" />
            <mxPoint x="490" y="270" as="targetPoint" />
          </mxGeometry>
        </mxCell>
        <mxCell id="YO2cyMpKr7BF2TFz9Hn_-52" value="" style="endArrow=none;html=1;rounded=0;exitX=0.1;exitY=0.4;exitDx=0;exitDy=0;entryX=0.5;entryY=1;entryDx=0;entryDy=0;exitPerimeter=0;" edge="1" parent="1" source="YO2cyMpKr7BF2TFz9Hn_-47" target="YO2cyMpKr7BF2TFz9Hn_-1">
          <mxGeometry width="50" height="50" relative="1" as="geometry">
            <mxPoint x="440" y="320" as="sourcePoint" />
            <mxPoint x="490" y="270" as="targetPoint" />
          </mxGeometry>
        </mxCell>
        <mxCell id="YO2cyMpKr7BF2TFz9Hn_-54" value="1" style="text;html=1;strokeColor=none;fillColor=none;align=center;verticalAlign=middle;whiteSpace=wrap;rounded=0;" vertex="1" parent="1">
          <mxGeometry x="460" y="310" width="60" height="30" as="geometry" />
        </mxCell>
        <mxCell id="YO2cyMpKr7BF2TFz9Hn_-56" value="N" style="text;html=1;strokeColor=none;fillColor=none;align=center;verticalAlign=middle;whiteSpace=wrap;rounded=0;" vertex="1" parent="1">
          <mxGeometry x="305" y="210" width="60" height="30" as="geometry" />
        </mxCell>
      </root>
    </mxGraphModel>
  </diagram>
</mxfile>
